<?xml version="1.0"?>
<svg width="100" height="135" xmlns="http://www.w3.org/2000/svg" xmlns:svg="http://www.w3.org/2000/svg">
 <g>
  <title>Layer 1</title>
  <path d="m84.217003,27.754c-0.268013,-1.052 0.432999,-2.254 0,-3.336c-0.306999,-0.769999 -1.409004,-1.345999 -2.292999,-2.084999c-1.752014,-1.464001 -2.955002,-2.518 -5.005005,-3.337c-0.199997,-2.833 0.377998,-5.763 -1.042,-7.923c-4.134003,2.053 -3.530998,8.841 -9.385002,9.174c-2.945995,-1.643999 -4.214996,-6.943999 -8.756996,-5.63c-1.472,3.972001 0.494999,9.178 1.042,13.137c-0.906002,1.374001 -1.849998,2.575001 -2.889,3.566999c0.003998,0.237001 -0.087002,0.475 -0.275002,0.648001c-0.099998,0.092001 -0.162998,0.197001 -0.148998,0.413c0.105999,1.666 3.952,5.07 5.889999,6.438999c0.452999,0.32 0.910999,0.665001 1.396,1.028c1.620003,1.217003 3.457001,2.597 5.225998,3.067001c0.672005,0.179001 1.771004,0.145 2.834,0.111c1.965004,-0.061001 3.987999,-0.119999 5.050003,0.966c3.286003,-1.194 7.123001,-0.729 9.193001,-3.312c1.610001,-2.011002 2.401001,-4.863998 2.501999,-8.549c-0.649002,-1.934999 -2.808998,-2.296 -3.337997,-4.378z" id="svg_1" fill="#cccccc"/>
  <path d="m70.375,45.987999c0,-0.473 0.232002,-0.902 0.603996,-1.243999c-0.115997,0.003002 -0.233986,0.007 -0.345985,0.010002c-1.242004,0.037998 -2.415001,0.073997 -3.332001,-0.170002c-2.092003,-0.556999 -4.070999,-2.042999 -5.816002,-3.354c-0.474998,-0.355999 -0.922997,-0.692001 -1.355999,-0.999001c-0.062,-0.042999 -5.868,-4.181 -6.550999,-7.315998c-0.149002,0.087997 -0.297001,0.181999 -0.451,0.261997c-5.636002,2.938004 -10.795002,-0.355 -17.932999,-0.834c-6.185001,-0.414999 -10.559002,0.943001 -13.554001,3.754002c-3.404001,-0.400002 -2.768002,2.433998 -3.336,5.004002c-0.358,1.616997 -1.385,2.816998 -1.668001,3.753998c-1.492,4.931999 -1.933,14.827999 -2.918999,20.852001c-0.429001,2.616997 -1.188001,4.806 -1.251,6.464996c-0.093,2.431 0.11,8.658005 1.459,10.217003c1.312,1.516998 6.641,1.223 6.881,-0.417c0.234001,-1.601997 -2.615,-1.575996 -3.335999,-3.126999c-0.725,-1.557999 -0.355001,-5.277 0.417,-7.299004c0.908998,-2.379997 3.028,-4.792 4.379,-7.297997c1.410999,-2.618 3.101,-4.819 4.587,-7.09c2.200001,1.777 3.26,0.064999 4.796,-0.625999c2.026001,1.701 0.184999,4.709 0.208,7.507c0.005001,0.559998 0.319,1.232002 0.417,1.876999c0.41,2.681999 0.048,6.070999 0.625999,7.506996c0.649002,1.613014 7.031002,3.540001 7.506001,0.833c0.247002,-1.404999 -2.616001,-2.037987 -3.126999,-3.334999c-1.197002,-3.037987 0.653999,-9.499996 2.501999,-10.218998c1.640999,1.417999 3.334999,2.782001 5.213001,3.963001c2.422001,7.740997 1.175999,16.658997 3.127998,23.353996c1.956001,0.785004 6.103001,1.581001 8.132,0c-0.341,-2.828987 -3.424999,-3.659996 -3.753998,-6.880997c-0.479,-4.708 1.248997,-9.891998 1.876999,-14.805c2.533001,-2.124001 7.640999,-1.674004 10.634998,-3.337002c1.653999,6.805004 -1.384998,14.704998 1.459999,20.019001c2.253006,1.055 5.970001,1.373001 7.298004,-0.625999c-0.354004,-1.778 -2.556999,-1.978996 -3.126999,-3.543999c-1.666,-4.565002 1.964996,-9.347 2.501999,-13.972c0.229996,-1.995003 -0.024994,-4.114002 0.208,-6.047001c0.333,-2.75 1.417,-5.188 1.460007,-7.507c0.022995,-1.238998 -0.220001,-2.446999 -0.363007,-3.631001c-0.406006,0.182999 -0.878006,0.293999 -1.386993,0.293999c-1.484001,-0.001999 -2.687996,-0.893997 -2.687996,-1.993999l-0.000023,0z" id="svg_2" fill="#cccccc"/>
  <path fill="#bfbfbf" d="m73.061996,43.994999c-0.845985,0 -1.590996,0.296001 -2.084,0.749001c-0.370987,0.341999 -0.603996,0.771 -0.603996,1.243999c0,1.101002 1.204002,1.993 2.687996,1.993c0.509003,0 0.980003,-0.111 1.387001,-0.293999c0.776001,-0.348999 1.301003,-0.976002 1.301003,-1.699001c0,-1.100998 -1.204002,-1.993 -2.688004,-1.993z" id="svg_3"/>
 </g>
</svg>